# xmcd
#
# Track frame offsets:
#	150
#	18660
#	37520
#	53510
#	68786
#	85359
#	104550
#	121739
#	140072
#	151609
#	165179
#	181557
#	193687
#	207019
#
# Disc length: 2975 seconds
# Revision: 0
# Processed by: cddbd v1.5.2PL0 Copyright (c) Steve Scherf et al.
# Submitted via: dBpowerAMP V12.0
#
DISCID=a40b9d0e
DTITLE=David Buhler - What You Dream
DYEAR=2012
DGENRE=Country
TTITLE0=Painted Pony
TTITLE1=Catfish
TTITLE2=Crazy Luvin You
TTITLE3=Junk Mail
TTITLE4=Sinner
TTITLE5=The Dirt
TTITLE6=1000 Years
TTITLE7=Take Back
TTITLE8=Your Eyes
TTITLE9=What You Dream
TTITLE10=Missionary Man
TTITLE11=Testament To You
TTITLE12=Stevens Pass
TTITLE13=Red Dawn
EXTD=
EXTT0=
EXTT1=
EXTT2=
EXTT3=
EXTT4=
EXTT5=
EXTT6=
EXTT7=
EXTT8=
EXTT9=
EXTT10=
EXTT11=
EXTT12=
EXTT13=
PLAYORDER=
